<svg width="373" height="100" viewBox="0 0 373 100" fill="none" xmlns="http://www.w3.org/2000/svg">
<g clip-path="url(#clip0_4_141)">
<rect x="20" y="18" width="64" height="64" rx="15.36" fill="#222222"/>
<path d="M-21.8 20.24L47.64 89.68" stroke="white" stroke-width="7"/>
<path d="M7.47998 32.4L76.92 101.84" stroke="white" stroke-width="7"/>
<path d="M19.04 26.4L88.48 95.84" stroke="white" stroke-width="7"/>
</g>
<path d="M124.44 51.368C124.44 64.184 124.296 70.016 120.768 73.904C118.824 76.064 116.016 77.576 111.912 77.576C107.808 77.576 105.072 76.064 103.128 73.904C99.6 70.016 99.384 64.184 99.384 51.368C99.384 38.552 99.6 32.72 103.128 28.832C105.072 26.672 107.808 25.16 111.912 25.16C116.016 25.16 118.824 26.672 120.768 28.832C124.296 32.72 124.44 38.552 124.44 51.368ZM118.248 51.368C118.248 39.2 117.888 35.096 116.088 32.648C115.224 31.496 113.928 30.704 111.912 30.704C109.896 30.704 108.6 31.496 107.736 32.648C105.936 35.096 105.576 39.2 105.576 51.368C105.576 63.536 105.936 67.64 107.736 70.088C108.6 71.24 109.896 72.032 111.912 72.032C113.928 72.032 115.224 71.24 116.088 70.088C117.888 67.64 118.248 63.536 118.248 51.368ZM152.26 39.704L143.332 77H137.14L128.14 39.704H134.548L140.236 67.784L145.852 39.704H152.26ZM176.509 59.72H161.173C161.173 65.624 161.461 69.08 162.757 70.736C163.477 71.6 164.485 72.32 165.997 72.32C167.365 72.32 168.445 71.816 169.309 70.88C170.101 69.944 170.605 68.36 170.605 66.632H176.365C176.293 69.944 175.429 72.68 173.413 74.84C171.613 76.784 168.949 77.576 165.997 77.576C162.757 77.576 160.597 76.712 158.653 74.696C155.773 71.744 155.341 66.2 155.341 58.352C155.341 50.504 155.701 44.96 158.581 42.008C160.525 39.992 162.973 39.128 165.925 39.128C168.949 39.128 171.325 39.92 173.269 42.008C176.365 45.392 176.509 51.728 176.509 59.72ZM170.677 55.328C170.677 50.288 170.389 47.264 169.237 45.896C168.517 45.032 167.437 44.312 165.925 44.312C164.413 44.312 163.405 45.032 162.685 45.896C161.533 47.264 161.173 50.288 161.173 55.328H170.677ZM197.682 44.744H195.954C191.994 44.744 189.186 47.336 189.186 51.584V77H183.354V39.704H188.97V43.664C189.546 42.656 190.626 41.648 191.562 41C193.29 39.776 195.306 39.128 197.682 39.128V44.744ZM214.059 77C210.891 77 208.227 76.568 205.995 74.696C203.979 73.04 202.683 70.448 202.683 66.344V25.736H208.515V66.128C208.515 69.8 210.243 71.744 214.059 71.744V77ZM238.434 77H232.89V73.688C232.314 74.696 231.45 75.632 230.73 76.208C229.578 77.072 228.354 77.576 226.338 77.576C223.602 77.576 221.658 76.712 219.93 74.768C218.49 73.112 217.554 70.304 217.554 66.416C217.554 62.96 218.706 59.936 220.866 57.992C222.738 56.336 224.898 55.472 228.786 55.472H232.602V49.568C232.602 46.112 231.09 44.24 228.21 44.24C226.914 44.24 226.05 44.744 225.33 45.464C224.322 46.544 223.962 47.768 223.962 49.784H218.13C218.13 46.904 218.778 44.096 221.01 41.864C222.666 40.208 225.33 39.128 228.21 39.128C231.234 39.128 233.754 39.992 235.482 41.72C237.282 43.592 238.434 46.112 238.434 49.928V77ZM232.602 66.632V59.72H229.29C227.49 59.72 226.266 60.008 225.114 61.088C224.034 62.096 223.386 64.184 223.386 66.2C223.386 70.088 224.898 72.464 227.922 72.464C230.73 72.464 232.602 70.088 232.602 66.632ZM266.658 39.704L256.146 82.976C254.49 89.672 249.954 90.968 243.762 90.968V85.784C247.362 85.784 249.594 84.848 250.458 81.464L251.61 76.928L242.538 39.704H248.946L254.634 67.712L260.25 39.704H266.658ZM309.3 25.736L298.212 77H291.876L280.788 25.736H287.628L295.044 66.992L302.532 25.736H309.3ZM320.249 77H314.417V40.352H320.249V77ZM320.753 33.08H313.913V26.312H320.753V33.08ZM348.135 77H342.447V74.12C342.087 74.84 340.935 75.992 340.215 76.424C339.063 77.144 337.695 77.576 336.183 77.576C333.663 77.576 331.647 76.784 329.991 74.84C327.615 72.032 327.255 66.992 327.255 58.352C327.255 49.712 327.615 44.672 329.991 41.864C331.503 40.064 333.447 39.128 336.183 39.128C337.695 39.128 339.063 39.488 340.215 40.208C340.935 40.64 341.799 41.504 342.303 42.296V25.736H348.135V77ZM342.303 66.848V49.784C342.303 47.768 341.727 46.4 340.791 45.464C339.999 44.672 338.919 44.312 337.767 44.312C336.471 44.312 335.319 44.888 334.599 45.896C333.231 47.768 333.087 51.656 333.087 58.352C333.087 65.048 333.231 68.864 334.599 70.736C335.319 71.744 336.471 72.32 337.767 72.32C338.919 72.32 339.999 72.032 340.791 71.24C341.727 70.304 342.303 68.864 342.303 66.848Z" fill="#222222"/>
<defs>
<clipPath id="clip0_4_141">
<rect x="20" y="18" width="64" height="64" rx="15.36" fill="white"/>
</clipPath>
</defs>
</svg>
